<svg width="17" height="17" viewBox="0 0 17 17" fill="none" xmlns="http://www.w3.org/2000/svg">
<g clip-path="url(#clip0_2_1948)">
<path d="M5.43445 8.77603C5.43445 7.29279 6.63654 6.09005 8.11978 6.09005C9.60302 6.09005 10.8058 7.29279 10.8058 8.77603C10.8058 10.2593 9.60302 11.462 8.11978 11.462C6.63654 11.462 5.43445 10.2593 5.43445 8.77603ZM3.98245 8.77603C3.98245 11.0611 5.83471 12.9134 8.11978 12.9134C10.4048 12.9134 12.2571 11.0611 12.2571 8.77603C12.2571 6.49096 10.4048 4.6387 8.11978 4.6387C5.83471 4.6387 3.98245 6.49096 3.98245 8.77603ZM11.454 4.47469C11.454 5.00837 11.8868 5.44182 12.4211 5.44182C12.9548 5.44182 13.3882 5.00837 13.3882 4.47469C13.3882 3.94101 12.9554 3.50821 12.4211 3.50821C11.8868 3.50821 11.454 3.94101 11.454 4.47469ZM4.86433 15.3344C4.07877 15.2986 3.65183 15.1678 3.36807 15.0572C2.99189 14.9108 2.72374 14.7363 2.44128 14.4545C2.15948 14.1727 1.9844 13.9046 1.83862 13.5284C1.72797 13.2446 1.59716 12.8177 1.56136 12.0321C1.52231 11.1828 1.5145 10.9277 1.5145 8.77603C1.5145 6.62438 1.52296 6.36991 1.56136 5.51992C1.59716 4.73437 1.72863 4.30808 1.83862 4.02367C1.98505 3.64749 2.15948 3.37934 2.44128 3.09688C2.72309 2.81507 2.99124 2.64 3.36807 2.49421C3.65183 2.38357 4.07877 2.25276 4.86433 2.21696C5.71366 2.17791 5.96878 2.1701 8.11978 2.1701C10.2714 2.1701 10.5259 2.17856 11.3759 2.21696C12.1614 2.25276 12.5877 2.38422 12.8721 2.49421C13.2483 2.64 13.5165 2.81507 13.7989 3.09688C14.0807 3.37869 14.2552 3.64749 14.4016 4.02367C14.5122 4.30743 14.6431 4.73437 14.6788 5.51992C14.7179 6.36991 14.7257 6.62438 14.7257 8.77603C14.7257 10.927 14.7179 11.1821 14.6788 12.0321C14.6431 12.8177 14.5116 13.2446 14.4016 13.5284C14.2552 13.9046 14.0807 14.1727 13.7989 14.4545C13.5171 14.7363 13.2483 14.9108 12.8721 15.0572C12.5884 15.1678 12.1614 15.2986 11.3759 15.3344C10.5265 15.3735 10.2714 15.3813 8.11978 15.3813C5.96878 15.3813 5.71366 15.3735 4.86433 15.3344ZM4.79794 0.767562C3.94015 0.806612 3.3544 0.942636 2.8422 1.14179C2.31242 1.34745 1.86335 1.6234 1.41493 2.07118C0.967154 2.51895 0.691202 2.96802 0.48554 3.49845C0.286386 4.01065 0.150362 4.5964 0.111312 5.45419C0.0716116 6.31329 0.0625 6.58794 0.0625 8.77603C0.0625 10.9641 0.0716116 11.2388 0.111312 12.0979C0.150362 12.9557 0.286386 13.5414 0.48554 14.0536C0.691202 14.5834 0.966503 15.0331 1.41493 15.4809C1.8627 15.9287 2.31177 16.204 2.8422 16.4103C3.35505 16.6094 3.94015 16.7454 4.79794 16.7845C5.65769 16.8235 5.93169 16.8333 8.11978 16.8333C10.3085 16.8333 10.5825 16.8242 11.4416 16.7845C12.2994 16.7454 12.8852 16.6094 13.3974 16.4103C13.9271 16.204 14.3762 15.9287 14.8246 15.4809C15.2724 15.0331 15.5477 14.5834 15.754 14.0536C15.9532 13.5414 16.0898 12.9557 16.1282 12.0979C16.1673 11.2381 16.1764 10.9641 16.1764 8.77603C16.1764 6.58794 16.1673 6.31329 16.1282 5.45419C16.0892 4.5964 15.9532 4.01065 15.754 3.49845C15.5477 2.96867 15.2724 2.5196 14.8246 2.07118C14.3769 1.6234 13.9271 1.34745 13.398 1.14179C12.8852 0.942636 12.2994 0.805961 11.4423 0.767562C10.5832 0.728512 10.3085 0.71875 8.12043 0.71875C5.93169 0.71875 5.65769 0.727862 4.79794 0.767562Z" fill="white"/>
</g>
<defs>
<clipPath id="clip0_2_1948">
<rect width="16.1146" height="16.1146" fill="white" transform="translate(0.0625 0.71875)"/>
</clipPath>
</defs>
</svg>
