<svg width="15" height="14" viewBox="0 0 15 14" fill="none" xmlns="http://www.w3.org/2000/svg">
<path d="M0.90625 1.62496C0.90625 1.18112 1.06115 0.814962 1.37094 0.526482C1.68073 0.23799 2.08347 0.09375 2.57913 0.09375C3.06596 0.09375 3.45983 0.235766 3.76078 0.519825C4.07056 0.812751 4.22547 1.19443 4.22547 1.6649C4.22547 2.09098 4.075 2.44603 3.77405 2.73009C3.46426 3.02301 3.0571 3.16948 2.55258 3.16948H2.5393C2.05248 3.16948 1.65861 3.02301 1.35766 2.73009C1.05672 2.43716 0.90625 2.06878 0.90625 1.62496ZM1.07885 13.2754V4.38113H4.02631V13.2754H1.07885ZM5.65937 13.2754H8.60683V8.30901C8.60683 7.99832 8.64224 7.75865 8.71305 7.59C8.83696 7.2882 9.02505 7.03299 9.27731 6.8244C9.52957 6.6158 9.846 6.5115 10.2266 6.5115C11.218 6.5115 11.7136 7.18168 11.7136 8.52204V13.2754H14.6611V8.17586C14.6611 6.86212 14.3513 5.86573 13.7317 5.18668C13.1121 4.50762 12.2934 4.16809 11.2755 4.16809C10.1337 4.16809 9.24412 4.66074 8.60683 5.64604V5.67267H8.59355L8.60683 5.64604V4.38113H5.65937C5.67707 4.66517 5.68592 5.54839 5.68592 7.03078C5.68592 8.51316 5.67707 10.5947 5.65937 13.2754Z" fill="white"/>
</svg>
