<svg width="16" height="11" viewBox="0 0 16 11" fill="none" xmlns="http://www.w3.org/2000/svg">
<path d="M15.6103 4.14795C15.6435 3.1871 15.4333 2.23344 14.9994 1.37552C14.705 1.02349 14.2964 0.785927 13.8448 0.704224C11.9769 0.53474 10.1013 0.465274 8.22606 0.496124C6.35762 0.463874 4.48878 0.531099 2.62749 0.697512C2.2595 0.76445 1.91895 0.937056 1.6474 1.19427C1.04324 1.75144 0.976114 2.70467 0.908985 3.51022C0.811588 4.95857 0.811588 6.41183 0.908985 7.86019C0.928405 8.31358 0.995913 8.76363 1.11037 9.20277C1.19131 9.54181 1.35507 9.8555 1.58699 10.1157C1.86038 10.3866 2.20886 10.569 2.58721 10.6393C4.03446 10.818 5.49271 10.892 6.9506 10.8609C9.30012 10.8944 11.361 10.8609 13.7978 10.6729C14.1854 10.6069 14.5437 10.4242 14.8248 10.1493C15.0128 9.96127 15.1532 9.73114 15.2343 9.478C15.4744 8.74133 15.5923 7.97035 15.5834 7.19561C15.6103 6.81969 15.6103 4.55072 15.6103 4.14795ZM6.70894 7.59838V3.44309L10.683 5.53081C9.56864 6.1484 8.09851 6.84654 6.70894 7.59838Z" fill="white"/>
</svg>
